<mxfile host="7718124f-cfd1-41ab-8d74-821347710b6d" modified="2020-09-25T06:55:12.386Z" agent="5.0 (Windows NT 10.0; Win64; x64) AppleWebKit/537.36 (KHTML, like Gecko) Code/1.49.0 Chrome/83.0.4103.122 Electron/9.2.1 Safari/537.36" etag="-Z1h72-UfOQx6KpSpUaU" version="13.1.3">
    <diagram id="6hGFLwfOUW9BJ-s0fimq" name="Page-1">
        <mxGraphModel dx="1993" dy="676" grid="1" gridSize="10" guides="1" tooltips="1" connect="1" arrows="1" fold="1" page="1" pageScale="1" pageWidth="827" pageHeight="1169" math="0" shadow="0">
            <root>
                <mxCell id="0"/>
                <mxCell id="1" parent="0"/>
                <mxCell id="57" value="" style="html=1;whiteSpace=wrap;aspect=fixed;shape=isoCube;backgroundOutline=1;gradientColor=none;fontSize=22;align=center;" vertex="1" parent="1">
                    <mxGeometry x="140" y="740" width="162" height="180" as="geometry"/>
                </mxCell>
                <mxCell id="8" value="&lt;font style=&quot;font-size: 19px&quot;&gt;XX.&lt;font style=&quot;font-size: 19px&quot;&gt;Spin&lt;/font&gt;&lt;/font&gt;" style="shape=note;whiteSpace=wrap;html=1;backgroundOutline=1;darkOpacity=0.05;gradientColor=none;" vertex="1" parent="1">
                    <mxGeometry x="570" y="185" width="80" height="100" as="geometry"/>
                </mxCell>
                <mxCell id="28" style="edgeStyle=orthogonalEdgeStyle;rounded=0;orthogonalLoop=1;jettySize=auto;html=1;exitX=0;exitY=0.5;exitDx=0;exitDy=0;entryX=1;entryY=0.5;entryDx=0;entryDy=0;fontSize=22;exitPerimeter=0;" edge="1" parent="1" source="8" target="12">
                    <mxGeometry relative="1" as="geometry"/>
                </mxCell>
                <mxCell id="12" value="&lt;font style=&quot;font-size: 21px&quot;&gt;BaseScript&lt;/font&gt;" style="whiteSpace=wrap;html=1;aspect=fixed;gradientColor=none;verticalAlign=top;align=center;" vertex="1" parent="1">
                    <mxGeometry x="257.5" y="140" width="190" height="190" as="geometry"/>
                </mxCell>
                <mxCell id="56" style="edgeStyle=orthogonalEdgeStyle;rounded=0;orthogonalLoop=1;jettySize=auto;html=1;exitX=0.5;exitY=1;exitDx=0;exitDy=0;entryX=0.1;entryY=0.5;entryDx=0;entryDy=0;entryPerimeter=0;fontSize=22;curved=1;" edge="1" parent="1" source="16" target="54">
                    <mxGeometry relative="1" as="geometry">
                        <Array as="points">
                            <mxPoint x="-25" y="745"/>
                        </Array>
                    </mxGeometry>
                </mxCell>
                <mxCell id="89" value="store all plugin" style="edgeLabel;html=1;align=center;verticalAlign=middle;resizable=0;points=[];fontSize=22;" vertex="1" connectable="0" parent="56">
                    <mxGeometry x="-0.4094" y="5" relative="1" as="geometry">
                        <mxPoint as="offset"/>
                    </mxGeometry>
                </mxCell>
                <mxCell id="16" value="&lt;font style=&quot;font-size: 21px&quot;&gt;Spin&lt;/font&gt;" style="whiteSpace=wrap;html=1;aspect=fixed;gradientColor=none;align=center;verticalAlign=middle;fontSize=22;" vertex="1" parent="1">
                    <mxGeometry x="-120" y="280" width="190" height="190" as="geometry"/>
                </mxCell>
                <mxCell id="30" style="edgeStyle=orthogonalEdgeStyle;rounded=0;orthogonalLoop=1;jettySize=auto;html=1;exitX=0;exitY=0.5;exitDx=0;exitDy=0;fontSize=22;curved=1;" edge="1" parent="1" source="22" target="16">
                    <mxGeometry relative="1" as="geometry"/>
                </mxCell>
                <mxCell id="86" value="delegate to" style="edgeLabel;html=1;align=center;verticalAlign=middle;resizable=0;points=[];fontSize=22;" vertex="1" connectable="0" parent="30">
                    <mxGeometry x="-0.3588" y="15" relative="1" as="geometry">
                        <mxPoint x="-18" y="27.759999999999998" as="offset"/>
                    </mxGeometry>
                </mxCell>
                <mxCell id="22" value="&lt;font style=&quot;font-size: 17px&quot;&gt;ScriptDelegate&lt;/font&gt;" style="rounded=1;whiteSpace=wrap;html=1;gradientColor=none;fontSize=22;align=center;" vertex="1" parent="1">
                    <mxGeometry x="280" y="225" width="145" height="65" as="geometry"/>
                </mxCell>
                <mxCell id="36" value="&lt;font style=&quot;font-size: 19px&quot;&gt;XXX.&lt;font style=&quot;font-size: 19px&quot;&gt;Spin&lt;/font&gt;&lt;/font&gt;" style="shape=note;whiteSpace=wrap;html=1;backgroundOutline=1;darkOpacity=0.05;gradientColor=none;" vertex="1" parent="1">
                    <mxGeometry x="580" y="415" width="80" height="100" as="geometry"/>
                </mxCell>
                <mxCell id="37" style="edgeStyle=orthogonalEdgeStyle;rounded=0;orthogonalLoop=1;jettySize=auto;html=1;exitX=0;exitY=0.5;exitDx=0;exitDy=0;entryX=1;entryY=0.5;entryDx=0;entryDy=0;fontSize=22;exitPerimeter=0;" edge="1" parent="1" source="36" target="38">
                    <mxGeometry relative="1" as="geometry"/>
                </mxCell>
                <mxCell id="38" value="&lt;font style=&quot;font-size: 21px&quot;&gt;BaseScript&lt;/font&gt;" style="whiteSpace=wrap;html=1;aspect=fixed;gradientColor=none;verticalAlign=top;align=center;" vertex="1" parent="1">
                    <mxGeometry x="257.5" y="370" width="190" height="190" as="geometry"/>
                </mxCell>
                <mxCell id="41" style="edgeStyle=orthogonalEdgeStyle;rounded=0;orthogonalLoop=1;jettySize=auto;html=1;exitX=0;exitY=0.5;exitDx=0;exitDy=0;entryX=1;entryY=0.5;entryDx=0;entryDy=0;fontSize=22;curved=1;" edge="1" parent="1" source="39" target="16">
                    <mxGeometry relative="1" as="geometry"/>
                </mxCell>
                <mxCell id="39" value="&lt;font style=&quot;font-size: 17px&quot;&gt;ScriptDelegate&lt;/font&gt;" style="rounded=1;whiteSpace=wrap;html=1;gradientColor=none;fontSize=22;align=center;" vertex="1" parent="1">
                    <mxGeometry x="280" y="455" width="145" height="65" as="geometry"/>
                </mxCell>
                <mxCell id="43" value="" style="html=1;whiteSpace=wrap;aspect=fixed;shape=isoCube;backgroundOutline=1;gradientColor=none;fontSize=22;align=center;" vertex="1" parent="1">
                    <mxGeometry x="150" y="595" width="90" height="100" as="geometry"/>
                </mxCell>
                <mxCell id="49" value="" style="html=1;whiteSpace=wrap;aspect=fixed;shape=isoCube;backgroundOutline=1;gradientColor=none;fontSize=22;align=center;" vertex="1" parent="1">
                    <mxGeometry x="240" y="595" width="90" height="100" as="geometry"/>
                </mxCell>
                <mxCell id="50" value="" style="html=1;whiteSpace=wrap;aspect=fixed;shape=isoCube;backgroundOutline=1;gradientColor=none;fontSize=22;align=center;" vertex="1" parent="1">
                    <mxGeometry x="200" y="630" width="90" height="100" as="geometry"/>
                </mxCell>
                <mxCell id="51" value="XXplugin" style="text;html=1;align=center;verticalAlign=middle;resizable=0;points=[];autosize=1;fontSize=22;" vertex="1" parent="1">
                    <mxGeometry x="90" y="545" width="100" height="30" as="geometry"/>
                </mxCell>
                <mxCell id="53" value="" style="endArrow=none;html=1;fontSize=22;" edge="1" parent="1" source="51" target="43">
                    <mxGeometry width="50" height="50" relative="1" as="geometry">
                        <mxPoint x="100" y="640" as="sourcePoint"/>
                        <mxPoint x="150" y="590" as="targetPoint"/>
                    </mxGeometry>
                </mxCell>
                <mxCell id="54" value="" style="shape=curlyBracket;whiteSpace=wrap;html=1;rounded=1;gradientColor=none;fontSize=22;align=center;" vertex="1" parent="1">
                    <mxGeometry x="80" y="620" width="20" height="250" as="geometry"/>
                </mxCell>
                <mxCell id="58" value="case" style="shape=cylinder;whiteSpace=wrap;html=1;boundedLbl=1;backgroundOutline=1;gradientColor=none;fontSize=22;align=center;" vertex="1" parent="1">
                    <mxGeometry x="230" y="830" width="50" height="50" as="geometry"/>
                </mxCell>
                <mxCell id="65" style="edgeStyle=orthogonalEdgeStyle;rounded=0;orthogonalLoop=1;jettySize=auto;html=1;exitX=0;exitY=0.7;exitDx=0;exitDy=0;entryX=1;entryY=0.5;entryDx=0;entryDy=0;fontSize=22;" edge="1" parent="1" source="59" target="63">
                    <mxGeometry relative="1" as="geometry"/>
                </mxCell>
                <mxCell id="59" value="case" style="shape=cylinder;whiteSpace=wrap;html=1;boundedLbl=1;backgroundOutline=1;gradientColor=none;fontSize=22;align=center;" vertex="1" parent="1">
                    <mxGeometry x="191" y="760" width="59" height="50" as="geometry"/>
                </mxCell>
                <mxCell id="60" value="log" style="shape=card;whiteSpace=wrap;html=1;gradientColor=none;fontSize=22;align=center;" vertex="1" parent="1">
                    <mxGeometry x="-430" y="475" width="80" height="100" as="geometry"/>
                </mxCell>
                <mxCell id="61" value="log" style="shape=card;whiteSpace=wrap;html=1;gradientColor=none;fontSize=22;align=center;" vertex="1" parent="1">
                    <mxGeometry x="-420" y="485" width="80" height="100" as="geometry"/>
                </mxCell>
                <mxCell id="62" value="log" style="shape=card;whiteSpace=wrap;html=1;gradientColor=none;fontSize=22;align=center;" vertex="1" parent="1">
                    <mxGeometry x="-410" y="495" width="80" height="100" as="geometry"/>
                </mxCell>
                <mxCell id="63" value="logProcess" style="rounded=0;whiteSpace=wrap;html=1;gradientColor=none;fontSize=22;align=center;" vertex="1" parent="1">
                    <mxGeometry x="-470" y="705" width="200" height="180" as="geometry"/>
                </mxCell>
                <mxCell id="68" style="edgeStyle=orthogonalEdgeStyle;rounded=0;orthogonalLoop=1;jettySize=auto;html=1;exitX=0.1;exitY=0.5;exitDx=0;exitDy=0;exitPerimeter=0;fontSize=22;entryX=0.1;entryY=0.5;entryDx=0;entryDy=0;entryPerimeter=0;" edge="1" parent="1" target="66">
                    <mxGeometry relative="1" as="geometry">
                        <mxPoint x="-370" y="700" as="sourcePoint"/>
                    </mxGeometry>
                </mxCell>
                <mxCell id="66" value="" style="shape=curlyBracket;whiteSpace=wrap;html=1;rounded=1;dashed=1;gradientColor=none;fontSize=22;align=center;rotation=-90;" vertex="1" parent="1">
                    <mxGeometry x="-380" y="550" width="20" height="120" as="geometry"/>
                </mxCell>
                <mxCell id="71" style="edgeStyle=orthogonalEdgeStyle;rounded=0;orthogonalLoop=1;jettySize=auto;html=1;entryX=0.1;entryY=0.5;entryDx=0;entryDy=0;entryPerimeter=0;fontSize=22;curved=1;" edge="1" parent="1" source="69" target="70">
                    <mxGeometry relative="1" as="geometry">
                        <Array as="points">
                            <mxPoint x="630" y="755"/>
                        </Array>
                    </mxGeometry>
                </mxCell>
                <mxCell id="69" value="&lt;font style=&quot;font-size: 21px&quot;&gt;plugin&lt;br&gt;Manager&lt;/font&gt;" style="whiteSpace=wrap;html=1;aspect=fixed;gradientColor=none;fontSize=22;align=center;" vertex="1" parent="1">
                    <mxGeometry x="520" y="920" width="170" height="170" as="geometry"/>
                </mxCell>
                <mxCell id="70" value="" style="shape=curlyBracket;whiteSpace=wrap;html=1;rounded=1;gradientColor=#ffffff;fontSize=22;align=center;direction=west;" vertex="1" parent="1">
                    <mxGeometry x="400" y="640" width="30" height="230" as="geometry"/>
                </mxCell>
                <mxCell id="75" style="edgeStyle=orthogonalEdgeStyle;rounded=0;orthogonalLoop=1;jettySize=auto;html=1;exitX=0;exitY=0;exitDx=0;exitDy=27.5;exitPerimeter=0;fontSize=22;curved=1;" edge="1" parent="1" source="72" target="69">
                    <mxGeometry relative="1" as="geometry"/>
                </mxCell>
                <mxCell id="72" value="" style="html=1;whiteSpace=wrap;aspect=fixed;shape=isoCube;backgroundOutline=1;gradientColor=none;fontSize=22;align=center;" vertex="1" parent="1">
                    <mxGeometry x="790" y="1040" width="90" height="100" as="geometry"/>
                </mxCell>
                <mxCell id="73" value="" style="endArrow=none;html=1;fontSize=22;exitX=0;exitY=0;exitDx=90;exitDy=27.5;exitPerimeter=0;" edge="1" parent="1" source="72">
                    <mxGeometry width="50" height="50" relative="1" as="geometry">
                        <mxPoint x="870" y="1090" as="sourcePoint"/>
                        <mxPoint x="920" y="1040" as="targetPoint"/>
                    </mxGeometry>
                </mxCell>
                <mxCell id="74" value="customer plugin" style="text;html=1;align=center;verticalAlign=middle;resizable=0;points=[];autosize=1;fontSize=22;" vertex="1" parent="1">
                    <mxGeometry x="858" y="1020" width="170" height="30" as="geometry"/>
                </mxCell>
                <mxCell id="77" style="edgeStyle=orthogonalEdgeStyle;rounded=0;orthogonalLoop=1;jettySize=auto;html=1;exitX=0;exitY=0;exitDx=0;exitDy=27.5;exitPerimeter=0;entryX=1;entryY=0.5;entryDx=0;entryDy=0;fontSize=22;curved=1;" edge="1" parent="1" source="76" target="69">
                    <mxGeometry relative="1" as="geometry"/>
                </mxCell>
                <mxCell id="76" value="" style="html=1;whiteSpace=wrap;aspect=fixed;shape=isoCube;backgroundOutline=1;gradientColor=none;fontSize=22;align=center;" vertex="1" parent="1">
                    <mxGeometry x="790" y="1169" width="90" height="100" as="geometry"/>
                </mxCell>
                <mxCell id="78" value="" style="shape=cylinder;whiteSpace=wrap;html=1;boundedLbl=1;backgroundOutline=1;gradientColor=none;fontSize=22;align=center;" vertex="1" parent="1">
                    <mxGeometry x="930" y="1100" width="60" height="50" as="geometry"/>
                </mxCell>
                <mxCell id="81" value="" style="endArrow=none;html=1;fontSize=22;exitX=1.02;exitY=0.081;exitDx=0;exitDy=0;exitPerimeter=0;" edge="1" parent="1" source="78">
                    <mxGeometry width="50" height="50" relative="1" as="geometry">
                        <mxPoint x="990" y="1115" as="sourcePoint"/>
                        <mxPoint x="1040" y="1065" as="targetPoint"/>
                    </mxGeometry>
                </mxCell>
                <mxCell id="82" value="customer case" style="edgeLabel;html=1;align=center;verticalAlign=middle;resizable=0;points=[];fontSize=22;" vertex="1" connectable="0" parent="81">
                    <mxGeometry x="1" y="-2" relative="1" as="geometry">
                        <mxPoint x="1" y="-3" as="offset"/>
                    </mxGeometry>
                </mxCell>
                <mxCell id="84" value="extend" style="text;html=1;align=center;verticalAlign=middle;resizable=0;points=[];autosize=1;fontSize=22;" vertex="1" parent="1">
                    <mxGeometry x="464" y="194" width="80" height="30" as="geometry"/>
                </mxCell>
                <mxCell id="85" value="extend" style="text;html=1;align=center;verticalAlign=middle;resizable=0;points=[];autosize=1;fontSize=22;" vertex="1" parent="1">
                    <mxGeometry x="480" y="427" width="80" height="30" as="geometry"/>
                </mxCell>
                <mxCell id="87" value="delegate to" style="text;html=1;align=center;verticalAlign=middle;resizable=0;points=[];autosize=1;fontSize=22;labelBackgroundColor=#2A2A2A;labelBorderColor=none;" vertex="1" parent="1">
                    <mxGeometry x="110" y="415" width="120" height="30" as="geometry"/>
                </mxCell>
            </root>
        </mxGraphModel>
    </diagram>
</mxfile>